<svg xmlns="http://www.w3.org/2000/svg" viewBox="0 0 502.39 135.86">
    <g>
        <g>
            <g>
                <path style="fill:#15234A;" d="M254.32,72.98V6.56h28.11v68.43c0,31.96-20.08,45.34-47.01,45.34c-26.77,0-47.01-13.38-47.01-45.34V6.56
				h28.28v66.42c0,14.56,5.35,23.92,18.74,23.92C248.8,96.9,254.32,87.54,254.32,72.98"/>
                <polygon style="fill:#15234A;" points="367.53,6.56 394.47,6.56 394.47,118.32 369.54,118.32 323.7,49.39 323.36,49.39 323.36,118.32
				296.43,118.32 296.43,6.56 323.03,6.56 367.2,75.15 367.53,75.15 			"/>
                <path style="fill:#15234A;" d="M474.28,72.98V6.56h28.11v68.43c0,31.96-20.08,45.34-47.01,45.34c-26.77,0-47.01-13.38-47.01-45.34V6.56
				h28.28v66.42c0,14.56,5.35,23.92,18.74,23.92C468.76,96.9,474.28,87.54,474.28,72.98"/>
            </g>
        </g>
        <g>
            <path style="fill:#15234A;" d="M41.46,121.92c3.48-0.24,6.85-1,10.22-1.9c2.19-0.58,6.45-1.51,7.92-1.85c0.02-0.01,0.06-0.01,0.09-0.02
			c0.01,0,0.02-0.01,0.02-0.02c-0.01-0.03-0.04-0.1-0.1-0.17c-0.02-0.02-0.11-0.06-0.15-0.07c-1.9-0.49-7.15-2.03-10.8-5.51
			c-2.34-2.17-4.54-4.49-6.87-6.66c-1.88-1.75-6.03-5.28-6.32-5.37c-0.04,0.03-0.05,0.2-0.04,0.22c0.61,0.81,2.79,5.78,4.13,8.32
			c1.93,3.67,4.49,6.59,8.26,7.97c0.02,0.01,0.05,0.03,0.06,0.04c0.09,0.09-0.04,0.2-0.3,0.16c-0.02,0-0.04-0.01-0.07-0.01
			c-4.23-0.69-8.37-0.87-12.65-1.1c-3.24-0.17-6.59-0.39-9.7-1.45c-2.07-0.71-3.67-1.34-6.16-3.26c-0.02-0.01-0.16-0.06-0.29,0.01
			c-0.01,0,0,0.02,0.01,0.03c2.81,4.21,7.72,7.72,11.71,9.21C33.92,121.79,37.68,122.19,41.46,121.92z"/>
            <path style="fill:#15234A;" d="M38.18,113.27c0.24,0.05,0.48,0.09,0.85,0.15c0.01,0,0.02-0.02,0.02-0.03c-0.01-0.09-0.04-0.15-0.04-0.15
			s-0.19-0.2-0.23-0.24c-2.58-2.55-4.16-5.69-5.38-9.04c-0.9-2.47-1.72-4.96-2.59-7.44c-1.22-3.5-3.84-9.1-6.99-12.71
			c-0.01-0.01-0.03-0.03-0.04-0.02c-0.04,0.05-0.1,0.16-0.07,0.25c1.05,3.13,1.12,6.64,1.57,9.88c1.29,9.3,5.57,13.69,5.72,13.86
			c0.11,0.13,0.01,0.26-0.09,0.18c-0.19-0.14-0.35-0.26-0.54-0.41c-2.91-2.41-5.86-3.87-9.29-5.46c-2.75-1.27-5.07-2.38-7.56-4.12
			c-5.15-3.53-7.25-6.28-7.37-6.43c-0.08-0.06-0.19-0.06-0.27-0.04c0.35,1.27,0.87,2.41,1.43,3.56c2.15,4.46,5.45,7.94,9.35,10.94
			c3.89,2.98,8.1,4.7,12.92,5.5C32.46,111.99,35.31,112.68,38.18,113.27z"/>
            <path style="fill:#15234A;" d="M14.39,94.16c2.89,1.93,7.28,4.52,8.82,5.5c0.01,0.01,0.02,0.01,0.02,0.01s0.11-0.19,0.07-0.29
			c-0.01-0.02-0.01-0.04-0.02-0.06c-1.92-3.8-2.2-7.94-2.54-12.12c-0.29-3.62,0.37-8.15,0.19-11.67c-0.16-2.92-1.08-6.06-1.82-8.57
			c-0.1-0.33-0.14-0.4-0.15-0.41c-0.06,0.01-0.16,0.14-0.18,0.19c-0.01,0.02,0,0.02-0.01,0.04c-0.38,4.32-1.93,8.17-2.49,11.69
			c-0.66,4.13-0.19,9.47,0.91,12.49c0.06,0.18-0.11,0.22-0.17,0.12c-2.28-3.47-7.2-8.46-9.76-11.1c-3.27-3.44-5.5-6.63-6.74-10.58
			c-0.01-0.03-0.18-0.15-0.22-0.13c-0.02,0.04-0.04,0.37-0.04,0.56c-0.09,5.52,1.72,10.95,4.84,15.45
			C7.59,88.89,10.78,91.75,14.39,94.16z"/>
            <path style="fill:#15234A;" d="M12.87,81.19c0-0.01,0.01,0.01,0.02,0.01c0.14-0.1,0.13-0.14,0.08-0.47c-0.4-3.97,0.25-7.2,1.56-10.96
			c1.95-5.62,3.84-11.41,4.45-17.33c0.08-0.79,0.16-2.01,0.14-2.38c-0.05-0.02-0.22,0.08-0.22,0.1c-0.84,2.11-2.82,5.25-3.96,7.04
			c-2.19,3.44-4.68,6.87-4.98,11c-0.08,1.05-0.07,2.43,0.07,3.55c0,0.02-0.04,0.13-0.13,0.11c-0.01-0.01-0.06-0.03-0.07-0.08
			c-0.26-1.01-0.57-2.21-0.95-3.51c-2.01-6.82-6.84-11.11-6.81-21.08c-0.01-0.04-0.13-0.22-0.2-0.22c-0.11,0.16-0.42,0.88-0.68,1.72
			c-4.3,13.87,4.43,23.82,6.16,25.93C8.94,76.57,11.54,79.27,12.87,81.19z"/>
            <path style="fill:#15234A;" d="M6.62,53.63c0.93,2.66,2.18,6.61,2.45,7.63c0.01,0.03,0.18-0.04,0.2-0.12c0.75-2.84,3.84-8.39,5.78-10.99
			c0.14-0.19,0.28-0.37,0.42-0.56c1.93-2.55,3.99-5.03,5.27-7.99c0.89-2.05,2.26-6.45,2.35-6.87c0.01-0.03-0.29-0.08-0.43,0.12
			c-1.49,2.26-3.73,4.55-5.32,5.92c-2.55,2.08-4.54,3.66-6.07,6.72c-0.16,0.33-0.36,0.78-0.56,1.25c-0.47,1.1-0.93,2.41-0.94,2.44
			c-0.02,0.08-0.16,0.21-0.22,0.05c-0.04-0.14,0.26-3.73,0.28-4.22c0.15-2.92-0.41-5.79-0.8-8.69C8.54,34.68,8.2,31.67,9.2,27.39
			c0.07-0.29,0.15-0.58,0.23-0.87c0.06-0.22,0.11-0.39,0.19-0.61c0.01-0.04-0.04-0.21-0.11-0.23c-3.83,4.65-5.99,13.17-5.06,19.73
			C4.79,47.73,6.43,53.08,6.62,53.63z"/>
            <path style="fill:#15234A;" d="M12.15,39.19c0,0.97-0.07,2.35-0.07,2.36c-0.01,0.06,0.16-0.04,0.17-0.06c0.98-1.24,3.43-4.27,6.97-7.23
			c1.98-1.64,4.07-3.21,5.93-4.99c2.58-2.47,4.09-6.63,4.54-8.88c0.03-0.2,0.07-0.35,0.06-0.43c-0.05-0.02-0.21,0.04-0.23,0.07
			c-0.26,0.34-0.53,0.69-0.79,1.04c-1.5,2.04-3.08,3.27-5.16,4.63c-3.49,2.2-5.94,3.87-7.92,6.55c-0.01,0.02-0.03,0.04-0.05,0.06
			c-0.09,0.16-0.27,0.08-0.21-0.09c0.6-1.94,0.86-3.15,1.27-4.87c0.68-2.82,0.99-6.54,2.05-9.02c0.67-1.57,1.62-2.91,2.85-4.11
			c0.01-0.01,0.02-0.02,0.03-0.03c0.05-0.15,0.02-0.26,0.02-0.26c-0.18,0.04-0.47,0.15-0.68,0.26c-3.66,1.82-6.1,4.76-7.74,8.46
			c-1.01,2.28-1.28,4.66-1.29,7.07c0,0.81,0.02,1.62,0.06,2.42C12.05,34.13,12.14,37.02,12.15,39.19z"/>
            <path style="fill:#15234A;" d="M19.72,25.24c0,0,0.05,0.02,0.08,0.01c0.01-0.01,0.03-0.02,0.04-0.03c1-0.77,4.98-3.87,6.35-5.25
			c2.07-1.8,3.58-4.06,5.1-6.3c1.59-2.33,3.29-4.56,5.4-6.44c0.17-0.16,0.3-0.26,0.48-0.42c0.02,0.01,0.06-0.18,0.03-0.24
			c-3.64,1-7.39,2.5-10.22,4.94c-5.26,4.16-7.06,12.55-7.27,13.7C19.72,25.22,19.72,25.24,19.72,25.24z"/>
            <path style="fill:#15234A;" d="M141.7,111.23c-2.49,1.91-4.1,2.55-6.16,3.26c-3.11,1.07-6.45,1.28-9.7,1.45c-4.29,0.22-8.43,0.41-12.65,1.1
			c-0.02,0-0.04,0.01-0.07,0.01c-0.27,0.04-0.39-0.07-0.3-0.16c0.01-0.01,0.04-0.04,0.06-0.04c3.77-1.38,6.33-4.3,8.26-7.97
			c1.34-2.54,3.52-7.51,4.13-8.32c0.01-0.02,0-0.18-0.04-0.22c-0.29,0.1-4.43,3.63-6.32,5.37c-2.34,2.17-4.54,4.49-6.87,6.66
			c-3.65,3.49-8.9,5.02-10.8,5.51c-0.04,0.01-0.13,0.04-0.15,0.07c-0.06,0.07-0.08,0.14-0.1,0.17c0,0.01,0,0.02,0.02,0.02
			c0.02,0.01,0.06,0.01,0.09,0.02c1.48,0.34,5.74,1.26,7.92,1.85c3.36,0.9,6.73,1.66,10.22,1.9c3.77,0.27,7.53-0.13,11.04-1.44
			c3.99-1.49,8.91-5,11.71-9.21c0.01-0.01,0.02-0.03,0.01-0.03C141.87,111.18,141.73,111.22,141.7,111.23z"/>
            <path style="fill:#15234A;" d="M154.55,91.54c-0.12,0.15-2.22,2.9-7.37,6.43c-2.5,1.74-4.82,2.85-7.56,4.12c-3.43,1.59-6.38,3.04-9.29,5.46
			c-0.19,0.16-0.35,0.27-0.54,0.41c-0.1,0.07-0.2-0.05-0.09-0.18c0.14-0.16,4.43-4.55,5.72-13.86c0.45-3.25,0.51-6.75,1.57-9.88
			c0.03-0.1-0.03-0.2-0.07-0.25c-0.01-0.01-0.03,0.01-0.04,0.02c-3.15,3.6-5.77,9.2-6.99,12.71c-0.86,2.48-1.69,4.97-2.59,7.44
			c-1.22,3.35-2.8,6.49-5.38,9.04c-0.04,0.04-0.23,0.24-0.23,0.24s-0.03,0.06-0.04,0.15c0,0.01,0.01,0.03,0.02,0.03
			c0.37-0.06,0.61-0.1,0.85-0.15c2.87-0.59,5.72-1.28,8.61-1.76c4.82-0.8,9.04-2.52,12.92-5.5c3.9-2.99,7.2-6.48,9.35-10.94
			c0.56-1.16,1.08-2.29,1.43-3.56C154.74,91.48,154.63,91.48,154.55,91.54z"/>
            <path style="fill:#15234A;" d="M160.39,69.27c-0.04-0.02-0.21,0.1-0.22,0.13c-1.24,3.95-3.48,7.14-6.74,10.58
			c-2.56,2.64-7.49,7.64-9.76,11.1c-0.06,0.1-0.23,0.05-0.17-0.12c1.1-3.02,1.56-8.35,0.91-12.49c-0.56-3.53-2.11-7.38-2.49-11.69
			c0-0.02,0-0.02-0.01-0.04c-0.02-0.06-0.12-0.19-0.18-0.19c0,0.01-0.04,0.07-0.15,0.41c-0.74,2.51-1.66,5.65-1.82,8.57
			c-0.19,3.52,0.48,8.05,0.19,11.67c-0.34,4.19-0.62,8.33-2.54,12.12c-0.01,0.02-0.02,0.04-0.02,0.06c-0.04,0.1,0.07,0.29,0.07,0.29
			s0.02,0,0.02-0.01c1.54-0.98,5.92-3.57,8.82-5.5c3.61-2.41,6.8-5.28,9.3-8.88c3.12-4.5,4.93-9.93,4.84-15.45
			C160.43,69.64,160.41,69.32,160.39,69.27z"/>
            <path style="fill:#15234A;" d="M150.87,71.79c-0.01,0.05-0.06,0.07-0.07,0.08c-0.09,0.03-0.13-0.08-0.13-0.11c0.14-1.12,0.15-2.5,0.07-3.55
			c-0.3-4.13-2.8-7.56-4.98-11c-1.14-1.79-3.12-4.93-3.96-7.04c-0.01-0.02-0.17-0.13-0.22-0.1c-0.02,0.37,0.05,1.59,0.14,2.38
			c0.61,5.92,2.5,11.71,4.45,17.33c1.31,3.76,1.96,6.99,1.56,10.96c-0.04,0.33-0.05,0.37,0.08,0.47c0.01,0,0.01-0.01,0.02-0.01
			c1.33-1.92,3.93-4.62,5.53-6.57c1.73-2.11,10.46-12.06,6.16-25.93c-0.26-0.84-0.57-1.56-0.68-1.72c-0.07,0-0.18,0.17-0.2,0.22
			c0.03,9.98-4.8,14.26-6.81,21.08C151.44,69.58,151.14,70.78,150.87,71.79z"/>
            <path style="fill:#15234A;" d="M143.35,40.78c-1.58-1.37-3.83-3.66-5.32-5.92c-0.14-0.2-0.44-0.15-0.43-0.12c0.09,0.42,1.46,4.82,2.35,6.87
			c1.28,2.96,3.34,5.44,5.27,7.99c0.14,0.19,0.28,0.37,0.42,0.56c1.94,2.6,5.03,8.14,5.78,10.99c0.02,0.08,0.19,0.16,0.2,0.12
			c0.27-1.02,1.52-4.96,2.45-7.63c0.19-0.55,1.83-5.9,2.17-8.21c0.94-6.56-1.23-15.08-5.06-19.73c-0.06,0.02-0.12,0.19-0.11,0.23
			c0.07,0.22,0.12,0.39,0.19,0.61c0.08,0.29,0.17,0.58,0.23,0.87c1,4.28,0.66,7.29,0.17,10.93c-0.39,2.9-0.95,5.77-0.8,8.69
			c0.03,0.49,0.33,4.09,0.28,4.22c-0.05,0.16-0.2,0.04-0.22-0.05c-0.01-0.03-0.47-1.34-0.94-2.44c-0.19-0.48-0.39-0.93-0.56-1.25
			C147.89,44.45,145.9,42.86,143.35,40.78z"/>
            <path style="fill:#15234A;" d="M139.13,14.21c1.23,1.2,2.18,2.54,2.85,4.11c1.06,2.48,1.37,6.2,2.05,9.02c0.42,1.71,0.67,2.92,1.27,4.87
			c0.05,0.17-0.12,0.25-0.21,0.09c-0.01-0.02-0.03-0.04-0.05-0.06c-1.97-2.68-4.42-4.35-7.92-6.55c-2.07-1.36-3.65-2.59-5.16-4.63
			c-0.26-0.35-0.53-0.69-0.79-1.04c-0.02-0.03-0.18-0.08-0.23-0.07c-0.01,0.08,0.03,0.23,0.06,0.43c0.45,2.25,1.95,6.41,4.54,8.88
			c1.86,1.77,3.94,3.35,5.93,4.99c3.54,2.96,5.99,6,6.97,7.23c0.01,0.02,0.18,0.12,0.17,0.06c0-0.01-0.07-1.39-0.07-2.36
			c0-2.17,0.1-5.06,0.19-7.06c0.04-0.81,0.06-1.62,0.06-2.42c-0.01-2.41-0.27-4.79-1.29-7.07c-1.64-3.7-4.09-6.64-7.74-8.46
			c-0.21-0.11-0.5-0.22-0.68-0.26c-0.01,0-0.03,0.11,0.02,0.26C139.1,14.2,139.12,14.21,139.13,14.21z"/>
            <path style="fill:#15234A;" d="M123.5,6.81c0.18,0.16,0.3,0.26,0.48,0.42c2.12,1.88,3.82,4.11,5.4,6.44c1.52,2.24,3.03,4.5,5.1,6.3
			c1.37,1.38,5.35,4.48,6.35,5.25c0.02,0.01,0.03,0.03,0.04,0.03c0.03,0.01,0.08-0.01,0.08-0.01s-0.01-0.03-0.01-0.04
			c-0.21-1.14-2.01-9.54-7.27-13.7c-2.82-2.44-6.58-3.94-10.22-4.94C123.44,6.63,123.48,6.81,123.5,6.81z"/>
            <path style="fill:#15234A;" d="M127.96,123.71c-0.25,0.11-0.4,0.19-0.64,0.31c-4.35,2.24-8.93,2.5-13.64,1.59c-3.22-0.62-6.21-1.91-9.2-3.19
			c-2.15-0.91-4.26-1.92-6.47-2.65c-5.72-1.89-11.53-1.87-17.35-0.39c-0.1,0.03-0.2,0.04-0.3,0.05c-0.1-0.01-0.2-0.03-0.3-0.05
			c-5.83-1.48-11.63-1.5-17.35,0.39c-2.21,0.73-4.33,1.74-6.47,2.65c-2.99,1.28-5.98,2.57-9.2,3.19c-4.71,0.91-9.29,0.65-13.64-1.59
			c-0.24-0.13-0.39-0.2-0.64-0.31c-0.07-0.02-0.19,0.05-0.22,0.1c2.93,3,6.69,5.07,10.29,6.09c2.67,0.76,5.36,0.89,8.12,0.58
			c4.24-0.48,7.98-2.17,11.48-4.48c2.1-1.38,4.18-2.79,6.26-4.21c2.39-1.63,5.02-1.92,7.79-1.47c1.5,0.16,0.36,0.88,0.13,1
			c-3.72,1.82-7.23,4.01-10.5,6.53c-2.23,1.63-6.2,5.46-6.2,5.46l2.97,2.54c0,0,2.27-2.54,3.25-3.53
			c6.52-6.79,12.29-9.77,13.57-10.51c0.22-0.13,0.44-0.25,0.67-0.25c0.23,0,0.44,0.12,0.67,0.25c1.28,0.74,7.05,3.72,13.56,10.51
			c0.99,0.99,3.25,3.53,3.25,3.53l2.97-2.54c0,0-3.97-3.83-6.2-5.46c-3.27-2.53-6.78-4.71-10.5-6.53c-0.23-0.11-1.37-0.84,0.13-1
			c2.77-0.45,5.4-0.16,7.79,1.47c2.08,1.41,4.16,2.83,6.26,4.21c3.51,2.31,7.25,4,11.48,4.48c2.75,0.31,5.45,0.18,8.12-0.58
			c3.6-1.02,7.36-3.08,10.28-6.08C128.14,123.77,128.04,123.69,127.96,123.71z"/>
            <path style="fill:#15234A;" d="M78.92,69.29c0.41-0.62-0.62-1.01-0.88,0.07C77.79,70.36,78.51,69.91,78.92,69.29z"/>
            <path style="fill:#15234A;" d="M56.16,65.23c0.04-0.38,0-1.49-0.26-1.71c-0.27-0.21-0.23,0.19-0.42,0.17c-0.15-0.02-0.14-0.53-0.32-0.53
			c-0.19,0,0.06,0.88,0.26,1.4C55.62,65.07,56.11,65.91,56.16,65.23z"/>
            <path style="fill:#15234A;" d="M55.88,62.53c0.06-0.13,0.47-1.98,0.4-2.69c-0.06-0.7-0.44-1.37-0.53-1.32c-0.13,0.07,0.06,0.49,0.08,1.17
			c0.03,1.02-0.45,1.87-0.45,2.21C55.37,62.23,55.68,62.95,55.88,62.53z"/>
            <path style="fill:#15234A;" d="M67.96,65.32c0.25,0,0.43-0.88,0.27-1.32c-0.16-0.43-0.96-0.11-1.03,0.09C67.14,64.3,67.71,65.32,67.96,65.32
			z"/>
            <path style="fill:#15234A;" d="M75.28,54.53c0.4,0,0.39-0.3,0.62-0.29c0.24,0.01,0.04,0.3,0.45,0.3c0.4,0,0.83-1.04-0.47-1.04
			C74.82,53.51,74.96,54.52,75.28,54.53z"/>
            <path style="fill:#15234A;" d="M76.97,55.61c-0.81-0.21-0.64,0.25-1.14,0.31c-0.82,0.09-0.09-0.61-0.5-0.93c-0.18-0.14-0.66,0.56-0.7,1
			c-0.02,0.21-0.03,0.93,0.32,0.95c0.35,0.02,2.18,0.23,2.79,0.37C78.44,57.48,77.71,55.8,76.97,55.61z"/>
            <path style="fill:#15234A;" d="M78,64.36c-0.23-0.12-0.78,0.11-0.85-0.13c-0.06-0.24-0.49-0.2-0.38,0.02c0.1,0.22-0.13,0.45,0.09,0.73
			c0.28,0.3,0.9,0.27,1.21,0.02C78.25,64.8,78.14,64.43,78,64.36z"/>
            <path style="fill:#15234A;" d="M90.48,43.03c0.25,0.13,1.33-0.46,1.13-0.62c-0.2-0.16-1.48-0.75-1.5-0.39
			C90.07,42.61,90.23,42.91,90.48,43.03z"/>
            <path style="fill:#15234A;" d="M90.12,43.39c-0.4-0.21-2.04,1.79-1.77,2.11C88.47,45.63,90.27,43.48,90.12,43.39z"/>
            <path style="fill:#15234A;" d="M103.72,40.37c0.26,0.6,0.16,1.31-0.67,1.33c-0.44,0.01-0.56,0.49-0.13,0.71c0.19,0.1,0.8,0.01,1.08-0.17
			c0.29-0.18,0.64-0.41,0.57-0.86c-0.04-0.27-0.67-1.04-0.34-1.34c0.36-0.32,0.72,0.18,1.07,0.04c0.43-0.17,0.39-0.41,0.4-0.78
			c0.02-0.5-0.18-1.17-0.77-1.17c-0.44,0-1.19,1.17-1.23,1.24C103.66,39.51,103.54,39.94,103.72,40.37z"/>
            <path style="fill:#15234A;" d="M113.65,41.74c-0.21-0.64-1.11-2.71-1.41-2.64c-0.27,0.06,0.45,1.51,0.55,1.98c0.07,0.31-0.03,0.43-0.04,0.7
			c-0.01,0.27,0.77,2.14,0.84,2.65c0.08,0.51,0.24,2.04,0.65,1.88c0.26-0.1,0.24-1.04,0.18-1.4
			C114.26,43.86,114.04,42.94,113.65,41.74z"/>
            <path style="fill:#15234A;" d="M110.25,61.33c0.55-0.12,0.48-1.01-0.04-0.99c-0.51,0.02-1.07,0.77-0.91,0.78
			C109.67,61.13,109.95,61.39,110.25,61.33z"/>
            <path style="fill:#15234A;" d="M85.57,10.46c-0.96-0.62-0.16-1.48-0.93-2.05c-0.54-0.4-2.05,0-2.42,0.47c-0.65,0.84,0.84,0.56,1.38,0.8
			c0.6,0.27,1.89,1.38,2.12,1.15C85.96,10.61,85.68,10.56,85.57,10.46z"/>
            <path style="fill:#15234A;" d="M91.42,7.52c-1.29-0.59-6.17-0.56-6.04,0.7c0.1,1.08,2.81,0.07,3.52,0.01C89.6,8.17,92.56,8.11,91.42,7.52z"
            />
            <path style="fill:#15234A;" d="M107.63,16.8c0.48,0.18,0.48-0.71-0.34-1.37c-0.81-0.66-1.89-0.34-1.59-0.01
			C105.96,15.7,107.21,16.63,107.63,16.8z"/>
            <path style="fill:#15234A;" d="M136.34,55.04c-0.25-14.74-6.19-28.09-15.72-37.95c-0.44-0.46-0.9-0.91-1.35-1.35
			C109.4,6.2,96.05,0.26,81.31,0.01C80.99,0,80.68,0,80.36,0c-0.32,0-0.64,0-0.96,0.01C64.66,0.26,51.31,6.2,41.44,15.73
			c-0.46,0.44-0.91,0.9-1.35,1.35c-9.53,9.86-15.47,23.21-15.72,37.95c-0.01,0.32-0.01,0.64-0.01,0.96c0,0.32,0,0.64,0.01,0.96
			c0.25,14.74,6.19,28.09,15.72,37.95c0.44,0.46,0.9,0.91,1.35,1.35c9.86,9.53,23.21,15.47,37.95,15.72
			c0.32,0.01,0.64,0.01,0.96,0.01c0.32,0,0.64,0,0.96-0.01c14.74-0.25,28.09-6.19,37.95-15.72c0.46-0.44,0.91-0.9,1.35-1.35
			c9.53-9.86,15.47-23.21,15.72-37.95c0.01-0.32,0.01-0.64,0.01-0.96C136.35,55.67,136.35,55.36,136.34,55.04z M81.31,1.92
			c6.96,0.12,13.72,1.54,20.09,4.24c3.2,1.36,6.29,3.03,9.19,4.99c2.6,1.76,5.06,3.75,7.32,5.93l-6.24,6.24
			c-0.06-0.04-0.13-0.08-0.21-0.12c-0.36-0.22-0.66-0.31-0.47-0.55c0.38-0.49-0.38-0.41-0.65-1.61c-0.26-1.21-1.45-2.4-2.2-2.82
			c-0.73-0.41-1.24-0.97-1.9-1.35c-0.72-0.42-2.22-1.23-2.99-0.87c-0.38,0.18-0.89,0.3-1.47,0.39c-0.01,0-0.02,0-0.03,0.01
			c-6.1-3.31-13.06-5.24-20.45-5.4V1.92z M110.62,82.63c-0.41-1.12-0.64-1.46-0.71-1.91c-0.08-0.54-1.26-0.61-1.29-0.29
			c-0.04,0.5,0.07,1.21-0.19,1.75c-0.02,0.04,0.02,0.27,0,0.31c-0.03,0.05-0.06,0.09-0.08,0.14l-3.25-3.25
			c5.56-5.88,9.05-13.75,9.29-22.43h9.06c-0.12,5.48-1.25,10.8-3.38,15.82c-2.05,4.84-4.93,9.21-8.57,13.02l-0.7-0.7
			c0.06-0.06,0.1-0.13,0.13-0.2C111.13,84.26,110.91,83.44,110.62,82.63z M103.17,92c-0.2-0.32,0.95-1.3,1.17-1.85
			c0.27-0.65-1.16-0.95-0.79-1.63c0.43-0.81,1.33-2.02,1.69-2.83c0.32-0.91-1.21-1.84-2.13-2.13c-0.85-0.26-0.82-0.75-0.72-1.45
			c0.01-0.05,0.02-0.12,0.02-0.2c0.45-0.38,0.89-0.78,1.32-1.18l6.41,6.41c-2.26,2.17-4.73,4.06-7.37,5.67
			c0.09-0.18,0.16-0.34,0.21-0.4C103.13,92.25,103.19,92.14,103.17,92z M105.77,36.78c0.03,0.02,0.19,0.03,0.35,0.02
			c1.05,1.41,1.98,2.9,2.79,4.46c-0.07,0.05-0.15,0.1-0.23,0.12c-0.12,0.04-0.12-0.2-0.26-0.14c-0.04,0.06-0.11,0.11-0.15,0.14
			c-0.18,0.14-0.93-0.96-0.89-0.13c0.05,1.03,0.28,1.2,0.87,1.38c0.51,0.16,0.29,0.51,0.68,0.64c0.23,0.08,0.42,0.2,0.58,0.36
			c0.19,0.11,0.44,0.21,0.62,0.31c0.59,1.46,1.07,2.96,1.44,4.48c-0.19-0.04-0.3,0.2-0.39,0.27c-0.1,0.08,0.18-0.26-0.05-0.14
			c-0.22,0.15-0.46,0.24-0.63,0.46c-0.26,0.35-0.21,0.92-0.45,1.27c-0.52,0.77-0.66,1.19-1.75,0.82c-0.75-0.26-0.09-1.17,0.06-1.94
			c0.11-0.56,0.49-0.64,0.5-0.95c0-0.32-1.49-2.04-2.21-1.44c-0.59,0.49-0.66,1.26-1.1,1.83c-0.25,0.31-0.56,0.32-1.01,0.01
			c-0.29-0.2-0.56-0.59-0.44-0.91c0.2-0.51-1.08-1.66-1.53-2.23c-0.63-0.81-1.5-1.03-2.22-1.14c-0.04,0-0.07,0-0.1,0
			c-0.84-1.43-1.83-2.77-2.94-3.98l6.31-6.31c0.03,0.08,0.06,0.15,0.11,0.22c0.11,0.17,0.05,0.25,0.14,0.43
			c0.1,0.18,0.29,0.48,0.41,0.44c0.08-0.03,0.09-0.29,0.09-0.49c0.53,0.6,1.04,1.21,1.52,1.84c-0.09,0-0.17,0-0.2,0.07
			C105.65,36.68,105.72,36.75,105.77,36.78z M111.65,52.37c0.04-0.09,0.13-0.15,0.18-0.24c0.22,0.04,0.18-0.17,0.34-0.45
			c0.01-0.01,0.02-0.03,0.02-0.04c0.15,1.12,0.25,2.26,0.28,3.4h-7.03c0.09-0.07,0.21-0.11,0.26-0.17c0.03-0.04,0.06-0.14,0.07-0.18
			c0.34-0.84,1.92-0.65,1.46-1.31c-0.73-1.04,0.29-1.11,1.29-1.59c0.57-0.28,1.26,0.1,1.39-0.2c0.1-0.25,0.37-0.91,0.64-1.05
			c0.43-0.21,0.75-0.26,0.94-0.53c0.15-0.17,0.04-0.31,0.08-0.51c0.04-0.2,0.16-0.14,0.18-0.36c0-0.01,0-0.02,0-0.03
			c0.07,0.32,0.13,0.63,0.19,0.95c-0.07,0.21-0.16,0.46-0.26,0.67c-0.2,0.56-0.49,1.08-0.54,1.62
			C111.1,52.76,111.17,53.35,111.65,52.37z M98.54,45.19c-0.09,0.05-0.17,0.13-0.33,0.25c-0.16,0.13-0.32,0.37-0.39,0.47
			c-0.18,0.27-0.84-0.35-1.07-0.11c-0.19,0.2,1.04,1.61-0.19,1.23c-1.23-0.38-0.41-0.5-0.4-0.83c0.01-0.24-1.09-0.78-0.48-0.98
			c0.67-0.23-0.02-0.69,0.53-0.87c0.69-0.26,0.47-0.79-0.36-0.95c-0.81-0.16-0.56,1.56-1.09,1.33c-0.48-0.21-0.86-0.08-1.24-0.18
			c-0.08-0.03-0.15-0.09-0.2-0.17l1.74-1.74c0.05,0.01,0.09,0.01,0.11,0.02c0.06,0.03,0.37,0.18,0.37,0.18
			c0.21,0.08,0.3-0.21,0.5-0.22c0.2,0,0.41,0.13,0.48,0.07c0.05-0.04,0.04-0.18,0.06-0.26C97.31,43.3,97.97,44.22,98.54,45.19z
			 M94,74.59c0.72,0.2,1.64,0.55,1.9,0.63c0.82,0.27,1.99,0.25,2.77,0.65c0.19,0.1,0.37,0.22,0.54,0.32
			c0.36,0.22,0.67,0.32,0.99-0.19c0.14-0.23,0.35-0.55,0.58-0.96c0.46-0.83,1.01-2.01,1.23-3.5c0.33-2.22-0.11-2.94-0.44-3.01
			c-0.29-0.06-0.9,0.58-1.48,0.62c-0.36,0.02-0.27,0.65-0.26,1.04c0.01,0.41-0.62,0.85-0.8,0.62c-0.23-0.29-0.53-0.26-0.33,0.1
			c0.11,0.19-0.37,0.23-0.89,0.15c-0.32-0.05-0.66-0.14-0.89-0.26c-0.83-0.45,0.99-0.48,1.96-1.16c0.04-0.03,0.09-0.06,0.14-0.11
			c0.53-0.43,1.77-1.62,2-1.99c0.42-0.68,0.49-1.65,1.12-2.18c0.56-0.47,1.98-0.48,2.01-1.27c0.03-0.7,0.33-0.67,0.77-0.53
			c0.53,0.17,4.56-0.15,4.5-1.45c-0.03-0.62-0.94-1.36-1.84-1.44c-0.55-0.05-0.75-1.13-1.08-1.8c-0.41-0.85-0.8-1.32-1.02-1.69
			c-0.04-0.09-0.06-0.17-0.08-0.24h7.06c-0.12,4-0.96,7.88-2.51,11.55c-1.49,3.53-3.59,6.73-6.22,9.52l-0.21-0.21
			c0.02-0.06,0.03-0.11,0.04-0.17c0.03-0.17-0.03-0.55-0.01-0.75c0.11-1.2-0.74-3.09-1.04-2.85c-0.23,0.19-0.07,0.36-0.93,1.6
			c-0.03,0.04-0.06,0.09-0.09,0.13c-0.31,0.47-0.66,1.1-1.17,1.12c-0.2,0.01-0.36-0.09-0.59-0.17c-0.21-0.07-0.48-0.12-0.9-0.04
			c-1.27,0.25-1.98-0.01-2.36-0.08c-0.39-0.07-2.28-0.92-3.29-1.45c-0.41-0.22-0.67-0.38-0.63-0.42c0.13-0.14,0.55,0.19,0.54-0.23
			C93.1,74.37,93.5,74.45,94,74.59z M114.38,55.04c-0.06-2.02-0.29-4-0.68-5.92c0.01-0.01,0.02-0.02,0.02-0.02
			c0.27-0.56,0.47-1.25,0.42-1.88c-0.05-0.63-0.47-0.83-0.91-0.45c-0.03,0.02-0.06,0.05-0.08,0.08c-0.34-1.21-0.74-2.38-1.2-3.53
			c0.03-0.04,0.06-0.09,0.08-0.13c0.17-0.35-0.36-1.06-0.5-1.67c-0.05-0.21-0.29-0.38-0.6-0.52c-0.01,0-0.01,0-0.02,0
			c-0.25-0.5-0.5-0.99-0.77-1.48c0.29-0.33,0.69-0.87,0.12-0.92c-0.91-0.08-0.4-0.55-0.7-0.9c-0.11-0.13-0.29-0.02-0.41,0.13
			c-1.18-1.87-2.54-3.62-4.05-5.22l2.12-2.12c0.35,0.23,1.09,1.14,2.25,1.2c0.75,0.04,1.01,0.41,1.12,1.14
			c0.11,0.71,0.94,1.08,1.61,1.22c0.67,0.14,1.14,0.96,1.78,1.07c0.76,0.13,2.45,2.62,3.17,3.51c0.38,0.48,1.09,1.16,1.52,0.61
			c0.29-0.36,0.5-0.31,0.67-0.45c0.08-0.08,0.19-0.33,0.3-0.54c0.15,0.32,0.29,0.65,0.43,0.98c2.12,5.02,3.26,10.34,3.38,15.82
			H114.38z M81.31,12.9c5.48,0.12,10.8,1.25,15.82,3.38c0.93,0.39,1.84,0.82,2.74,1.27c-0.13,0.18-0.21,0.35-0.2,0.49
			c0.04,0.89,0.74,1.81,1.16,2.49c0.39,0.62,0.72,1.44,1.22,1.99c0.45,0.49,0.15,1.32,0.35,2.07c0.09,0.32,0.34,0.57,0.38,0.9
			c0.03,0.26-0.12,0.88-0.05,1.14c0.06,0.22,0.57,0.11,0.97-0.22c0.4-0.34,0.77-0.83,1.35-0.68c0.57,0.14,1.38,1.25,1.8,2.08
			c0.04,0.1,0.08,0.17,0.12,0.22l-2.89,2.89c-0.09-0.5-0.64-1.41-0.42-1.57c0.21-0.15,0.38,0.11,0.54,0.13
			c0.57,0.07-0.41-0.5-0.49-0.57c-0.46-0.4-0.5-1.02-1.05-1.4c-0.63-0.44-1.43-0.21-1.73-0.66c-0.73-1.28-2.2-2.71-2.33-2.62
			c-0.09,0.06,1.15,1.67,0.79,1.96c-0.31,0.25-2.06-1.15-2.25-0.83c-0.2,0.32,1.77,1.01,2.29,1.57c0.29,0.31,0.91,1.15,1.52,1.96
			c0.21,0.18,0.35-0.04,0.36,0.16c0,0.04,0.01,0.09,0.02,0.15c-5.55-4.34-12.47-7.01-20.02-7.21V12.9z M81.31,23.88
			c4,0.12,7.88,0.96,11.55,2.51c3.53,1.49,6.73,3.59,9.52,6.22l-6.41,6.41c-3.89-3.58-9.01-5.84-14.66-6.07V23.88z M81.31,43.9
			v-9.04c2.52,0.11,4.96,0.66,7.28,1.64c2.22,0.94,4.23,2.23,6.01,3.85c-0.04-0.01-0.09-0.01-0.15,0.01
			c-0.11,0.04-0.25,0.42-0.35,0.47c-0.26,0.14-0.5,0.01-0.59-0.03c-0.7-0.27-2.3,1.07-1.91,1.3c0.35,0.21,0.93-0.38,1.28-0.48
			c0.08-0.02,0.27-0.01,0.41,0.09l-2.57,2.57c-0.14-0.01-0.25-0.05-0.51,0.08c-0.78,0.34-1.33,1.07-1.39,1.38
			c-0.03,0.17,0.01,0.28,0.08,0.35l-0.68,0.68c-0.01,0.01-0.02,0.02-0.03,0.03c-0.88-0.75-1.88-1.38-2.95-1.86
			c0.01-0.01,0.02-0.02,0.03-0.03c0.33-0.26,0.55-0.71,0.59-1.36c0.06-0.97-0.33-0.47-0.81-0.18c-0.51,0.3-1.16,0.77-1.1,1.02
			c0.01,0.03,0.01,0.05,0.01,0.07c-0.85-0.26-1.74-0.44-2.65-0.51C81.31,43.93,81.31,43.92,81.31,43.9z M83.55,46.34
			C83.55,46.34,83.55,46.34,83.55,46.34c0.5,0.16,0.98,0.36,1.44,0.6c-0.25,0-0.62,0-0.7,0c-0.12-0.01-0.08-0.08-0.2-0.13
			c-0.13-0.05-0.13,0.08-0.23,0.05c-0.1-0.03-0.03-0.15-0.11-0.22s-0.15-0.04-0.19-0.06C83.53,46.56,83.57,46.42,83.55,46.34z
			 M83.23,46.23c-0.01,0-0.01,0-0.02-0.01C83.21,46.23,83.22,46.23,83.23,46.23z M80.62,46.3c0.07,0.15,0.09,0.4-0.27,0.66
			c-0.33,0.24-1.11-0.74-1.37,0.09c-0.26,0.84,0.53,0.43,0.65,0.65c0.12,0.22,1.23,1.09,1.8,1.05c0.57-0.04,1.5,0.02,1.44,0.65
			c-0.03,0.3,0.79,0.26,0.82,0.55c0.04,0.52,0.43,1.13,0.8,1.06c0.81-0.16,1.1,0.63,0.71,1.1c-0.39,0.47,0.45,0.28,0.61,1.26
			c0.15,0.9-0.68,0.22-0.88,0.87c-0.12,0.39-0.69,0.88-0.93,1.1c-0.17,0.16,0.16,0.45,0.36,0.28c0.21-0.17,0.49-0.63,0.83-0.54
			c0.38,0.1,0.82,1.63,1.3,1.84c0.48,0.21,0.35,0.72,0.4,0.94c0.06,0.25-0.7,0-0.63,0.25c0.13,0.45,0.98,0.51,0.97,0.88
			c-0.01,0.37-0.53,0.88-0.97,0.86c-0.39-0.02-1.16-1-1.15-0.79c0.01,0.3,0.34,1.16,0.74,1.1c0.43-0.06,1.45-0.45,1.09,0.11
			c-0.26,0.42-0.26,1.51-0.54,1.42c-0.45-0.15-0.47,0.01-0.16,0.4c0.11,0.14,0.18,0.79-0.26,1.29c-0.24,0.27-0.96-0.01-0.98-0.19
			c-0.04-0.26,0.95-0.13,0.94-0.6c-0.01-0.34-0.49-0.54-1.27-0.3c-0.4,0.13-0.59-0.12-0.87-0.13c-0.32-0.01-1.11,0.97-1.24,1.18
			c-0.15,0.25-0.1,0.61-0.14,0.88c-0.07,0.51-0.09,0.87-0.41,1.28c-0.15,0.24-0.1,0.39-0.15,0.57c-0.49,0.07-1,0.11-1.51,0.11
			c-0.2,0-0.4-0.01-0.6-0.02c-0.01-0.02-0.03-0.04-0.06-0.06c-0.14-0.11-0.44-0.33-0.76-0.14c-0.05,0.03-0.08,0.06-0.12,0.11
			c-1.98-0.3-3.78-1.18-5.22-2.45c0.08-0.03,0.16-0.06,0.23-0.1c0.31-0.17,0.94-0.51,1.31-0.42c0.47,0.12,0.53-0.15,0.84-0.24
			c0.29-0.08,1.01,0.36,1.45-0.04c0.32-0.3,1.49-2.21,1.35-2.6c-0.14-0.39,1.08-1.1,0.86-1.31c-0.1-0.1-0.27,0.09-0.34-0.03
			c-0.07-0.12,0.33-0.17-0.05-0.71c-0.28-0.39-0.73-0.22-0.96-0.37c-0.51-0.32-1.17-0.47-1.31-0.28c-0.14,0.19-0.58-0.25-0.77-0.19
			c-0.19,0.06-0.32,0.11-0.49,0.4c-0.14,0.24,0.2,0.53,0.15,0.82c-0.11,0.54-1.05,1.07-1.08,1.44c-0.03,0.37-0.4,0.09-0.55,0.36
			c-0.12,0.22-0.01,0.47-0.33,0.48c-0.22,0-1.04,1.26-1.09,1.35c-0.07,0.12-0.01,0.24-0.01,0.27c0.01,0.07-0.1,0.18-0.05,0.29
			c0,0.01,0.01,0.02,0.01,0.03c-0.63-0.71-1.17-1.5-1.58-2.36c0.03,0.02,0.07,0.03,0.11,0.04c0.14,0.03,0.23-0.01,0.43-0.04
			c0.2-0.03,0.37-0.55,0.64-0.38c0.5,0.33,2.21-2.78,1.9-3.63c-0.23-0.63-0.73-0.24-1.1-0.09c-0.38,0.16-0.52-0.23-0.24-0.41
			c0.28-0.18,2.06-0.14,1.05-0.8c-0.4-0.26-1.66-0.32-1.53-0.69c0.12-0.35,0.66-0.01,0.86,0.06c0.77,0.26,1.18-1.11,1.66-1.14
			c0.78-0.05,0.5-1.51-0.23-1.09c-0.53,0.3-1.02,0.3-1.37,0.68c-0.22,0.24-1.02,1-1.01,0.4c0-0.25,1.65-1.23,2-1.6
			c0.32-0.34,0.5-0.72,0.67-1.14c0.2-0.48,2.25-0.75,2.64-0.99c0.29-0.18,0.67-0.89,0.65-1.25c-0.01-0.39-0.61-0.27-0.68-0.56
			c-0.08-0.36,0.79,0,0.72-0.48c-0.09-0.66-0.89,0.1-1.05-0.29c-0.07-0.18,0.29-0.34,0.32-0.43c0.04-0.15-0.03-0.3-0.1-0.36
			c0,0-0.01,0-0.01,0c0.86-0.25,1.77-0.39,2.71-0.4c0,0.01-0.01,0.02-0.01,0.04C80.2,46.07,80.55,46.14,80.62,46.3z M55.74,75.94
			c0.04-0.16,0.04-0.33,0.04-0.5c0-0.96-0.67-1.61-1.04-2.42c-0.37-0.79-0.22-1.7-0.19-2.54c0.04-1.01-0.39-1.6-0.77-2.5
			c-0.18-0.43-0.34-1.12-0.31-1.74c0.05-1.08-0.89-0.67-0.87-0.99c0.04-0.52,0.66,0.04,0.77-0.25c0.08-0.22-0.93-1.51-1.56-1.84
			c-0.69-0.36-0.45-0.7-0.38-1.13c0.07-0.46-0.04-0.79-0.17-1.22c-0.21-0.64-0.04-1.53,0.73-1.63c0.32-0.04,0.85,0.22,1.2-0.04
			c0.43-0.32,0.19-1.19,0.15-1.83c-0.03-0.11-0.01-0.25,0.04-0.35h0.83c0.26,0.08,0.77,0.08,0.9,0.07c0.06,0,0.13-0.03,0.2-0.07
			h1.99c0.03,0.75,0.1,1.5,0.2,2.23c-0.04,0.01-0.07,0.02-0.12,0.04c-0.22,0.09-0.38,0.36-0.26,0.57c0.1,0.18,0.23,0.17,0.42,0.17
			c0.09,0,0.04,0.17,0.11,0.21c0.8,4.37,2.83,8.31,5.71,11.44l-6.41,6.41c-0.4-0.42-0.78-0.85-1.15-1.29c0-0.01-0.01-0.03-0.01-0.04
			c-0.05-0.24,0.05-0.44,0.06-0.62S55.77,76,55.74,75.94z M50.73,60.99c1.19,1.36-0.3,2.05-1.34,1.75c-0.2-0.04-0.34-0.08-0.48-0.11
			c-0.39-1.86-0.61-3.75-0.67-5.67h4.03c-0.03,0.17-0.05,0.32-0.1,0.44c-0.24,0.53-0.86,0.74-0.99,1.08
			C51.06,58.79,50.23,60.42,50.73,60.99z M42.78,69.48c-0.55,0.42-2.12,0.4-2.72,0.5c-0.11,0.02-0.28,0.03-0.48,0.03
			c-1.44-4.19-2.22-8.57-2.32-13.06h9.06c0.05,1.65,0.21,3.28,0.48,4.87c-0.01,0-0.02,0-0.03,0c-0.22-0.05-0.2-0.38-0.64-0.36
			c-0.49,0.02-2.12,2.87-2.77,4.07C42.84,66.5,43.62,68.83,42.78,69.48z M46.33,55.04h-9.06c0.12-5.48,1.25-10.8,3.38-15.82
			c2.05-4.84,4.93-9.21,8.57-13.02l6.41,6.41C50.05,38.49,46.57,46.36,46.33,55.04z M57.48,47.69c0.03,0.11,0.73-0.1,1.48-0.31
			c0.85-0.25,1.77-0.52,1.83-0.35c0.17,0.43-1.2,0.67-2.09,1.03c-0.06,0.02-0.11,0.05-0.16,0.07c-0.88,0.4-1.22,1.13-2.61,1.13
			c-0.65,0-1.01,0.57-1.32,1.07c-0.35,0.57-0.72,1.15-0.95,1.79c-0.24,0.67-0.09,1.87-0.62,2.66c-0.06,0.09-0.1,0.18-0.14,0.26
			h-4.66c0.12-4,0.96-7.88,2.51-11.55c1.49-3.53,3.59-6.73,6.22-9.52l6.41,6.41c-1.71,1.85-3.11,3.99-4.14,6.33
			c-0.11,0.06-0.25,0.14-0.31,0.2C58.46,47.32,57.36,47.28,57.48,47.69z M59.63,58.59c0.02,0.06,0.22,0.14,0.14,0.23
			c-0.07,0.08-0.21,0.07-0.37,0.01c-0.08-0.62-0.14-1.25-0.17-1.88h0.2c0.01,0.03,0.01,0.06,0.03,0.08
			c0.06,0.12,0.17,0.55,0.28,0.68c0.12,0.13,0.12,0.29,0.15,0.35c0.03,0.07,0.08,0.19-0.03,0.27
			C59.75,58.41,59.59,58.46,59.63,58.59z M57.46,53.18c-0.07,0.61-0.13,1.23-0.15,1.86h-2.89c-0.01-0.04-0.02-0.07-0.03-0.1
			c-0.02-0.11-0.03-0.07-0.13-0.22c-0.09-0.43-0.07-0.79,0.18-1.2c0.36-0.58,1.03-0.83,1.7-0.76c0.4,0.04,0.79,0.1,1.18,0.31
			C57.38,53.1,57.43,53.14,57.46,53.18z M64.74,41.73l5.71,5.71c-0.05,0-0.09,0.01-0.14,0.02c-0.16,0.01-0.48,0.04-0.69,0.01
			c-0.53-0.08-0.61-0.45-0.98-0.39c-0.88,0.13-0.97,0.4-1.16,0.26c-0.44-0.33-1.4-1.17-2.15-1.49c-0.58-0.25-1.9-0.39-2.94,0.2
			c-0.09,0.05-0.21,0.23-0.35,0.27c0,0-0.32,0.03-0.55,0.07C62.37,44.69,63.45,43.14,64.74,41.73z M64.74,39.02l-6.41-6.41
			c2.79-2.63,5.99-4.73,9.52-6.22c3.67-1.55,7.55-2.39,11.55-2.51v9.07C73.75,33.18,68.63,35.44,64.74,39.02z M56.97,31.26
			l-6.41-6.41c3.8-3.64,8.18-6.52,13.02-8.57c5.02-2.12,10.34-3.26,15.82-3.38v9.06C70.72,22.21,62.85,25.69,56.97,31.26z
			 M50.31,84.69l-1.1,1.1c-0.48-0.5-0.94-1.01-1.39-1.53c0.25-0.02,0.51-0.05,0.61-0.1c0.39-0.17,1.01,0.02,1.65,0.42
			C50.14,84.63,50.23,84.65,50.31,84.69z M60.87,64.23c-0.59-1.38-1.02-2.81-1.29-4.28c0.16,0.02,0.3,0.06,0.38,0.09
			c0.17,0.07,0.33,0.2,0.46,0.32c0.23,0.22,0.56,0.6,0.87,0.44c0.39-0.21,0.99,0.01,1.11,0.04c0.18,0.05,0.76,0.36,1.07,0.79
			c0.29,0.4,0.9,0.12,1.29,0.42c0.23,0.18,0.9,0.63,0.37,0.83c-0.45,0.17,0.56,0.87,0.77,0.83c0.2-0.04,0.3-0.23,0.22-0.69
			c-0.03-0.18,0.24-0.79,0.8-0.62c0.41,0.13,1.71,1.74,2.2,1.24c0.38-0.39,0.19-1.31,0.34-1.56c0.09-0.16,0.23-0.17,0.35-0.24
			c0.39,0.71,0.86,1.38,1.38,1.99c-0.01,0.01-0.02,0.02-0.03,0.03l-6.39,6.39C63.11,68.48,61.81,66.45,60.87,64.23z M71.15,58.28
			c-0.01,0.03-0.02,0.06-0.03,0.1c0,0.02-0.01,0.03-0.01,0.05c-0.02,0.05-0.03,0.1-0.04,0.15c0,0,0,0,0,0
			c-0.01,0.05-0.02,0.11-0.03,0.16c0,0.02-0.01,0.03-0.01,0.05c0,0.02,0,0.03-0.01,0.04c0,0.03-0.01,0.05-0.01,0.08
			c0,0.02,0,0.04-0.01,0.05c0,0.04-0.01,0.08-0.01,0.12c0,0.01,0,0.03,0,0.04c0,0.01,0,0.03-0.01,0.06
			c-0.06-0.25-0.25-0.58-0.25-0.58c-0.08-0.11-0.17-0.19-0.25-0.24c-0.07-0.04-0.14-0.07-0.18-0.08c-0.13-0.05-0.3-0.05-0.48-0.02
			c-0.09,0.02-0.18,0.04-0.27,0.07c0,0-0.01,0-0.01,0c-0.09,0.03-0.19,0.07-0.28,0.11c-0.05,0.02-0.11,0.05-0.18,0.07
			c-0.02,0.01-0.05,0.01-0.07,0.02c-0.04,0.01-0.08,0.02-0.13,0.04c-0.03,0.01-0.07,0.02-0.1,0.02c-0.04,0.01-0.08,0.02-0.12,0.02
			c-0.03,0.01-0.06,0.01-0.09,0.02c-0.01,0-0.02,0-0.04,0.01c-0.07,0.01-0.14,0.02-0.21,0.03c-0.15,0.02-0.3,0.03-0.44,0.04
			c-0.15,0.01-0.29,0.01-0.43,0.01c-0.14,0-0.26-0.01-0.38-0.02c-0.28-0.02-0.48-0.07-0.5-0.15c-0.12-0.61,0.58-0.16,1.24-1.61
			c0.04-0.09,0.09-0.2,0.13-0.31c0.09-0.23,0.18-0.42,0.27-0.59c0.02-0.04,0.04-0.08,0.06-0.11c0.02-0.04,0.05-0.08,0.07-0.12
			c0.01-0.01,0.01-0.01,0.01-0.02c0.05-0.07,0.09-0.13,0.14-0.19c0,0,0.01-0.01,0.01-0.02c0.04-0.06,0.09-0.11,0.14-0.15
			c0,0,0.01-0.01,0.01-0.01c0.08-0.07,0.15-0.13,0.23-0.18c0.22-0.13,0.43-0.16,0.64-0.12c0.01,0,0.01,0,0.02,0
			c0.04,0.01,0.07,0.02,0.11,0.03c0.02,0,0.03,0.01,0.05,0.01c0.03,0.01,0.07,0.03,0.1,0.04c0.02,0.01,0.04,0.02,0.06,0.03
			c0.03,0.02,0.06,0.03,0.09,0.05c0.02,0.01,0.04,0.03,0.07,0.04c0.03,0.02,0.05,0.04,0.08,0.06c0.02,0.02,0.05,0.04,0.07,0.06
			c0.01,0.01,0.03,0.02,0.04,0.03c0.01,0.01,0.02,0.01,0.03,0.02c0.03,0.03,0.06,0.05,0.08,0.08c0.02,0.01,0.03,0.03,0.05,0.05
			c0.04,0.05,0.08,0.09,0.13,0.14c0.05,0.06,0.11,0.12,0.16,0.16c0.11,0.1,0.23,0.17,0.35,0.24c0.23,0.14,0.45,0.25,0.61,0.47
			c0.04,0.05,0.07,0.12,0.1,0.19c0.02,0.06,0.05,0.1,0.08,0.14c0.09,0.12,0.21,0.18,0.34,0.2c0.04,0.01,0.09,0.01,0.14,0.01
			c0.1,0,0.19-0.02,0.3-0.05c0.05-0.01,0.1-0.03,0.15-0.05c0.24-0.08,0.37-0.05,0.41,0.04c0.01,0.03,0.02,0.07,0.02,0.11
			c0,0.08-0.03,0.19-0.08,0.29c-0.05,0.1-0.12,0.21-0.19,0.3c-0.16,0.21-0.34,0.26-0.53,0.25c-0.26-0.01-0.53-0.15-0.74-0.18
			c-0.12-0.02-0.23,0-0.31,0.1c-0.02,0.03-0.04,0.06-0.06,0.1c-0.01,0.01-0.01,0.02-0.02,0.04c-0.01,0.03-0.03,0.05-0.04,0.08
			C71.16,58.25,71.15,58.27,71.15,58.28z M79.4,43.94c-1.09,0.09-2.14,0.32-3.13,0.67c-0.08-0.02-0.19,0-0.19,0
			c0.32-0.55,0.94-1.11,0.88-1.2c-0.08-0.12-1.1,0.64-1.45,1.34c-0.05,0.1-0.11,0.17-0.18,0.24c-1.02,0.47-1.97,1.08-2.82,1.8
			c-0.01-0.01-0.02-0.02-0.03-0.03l-6.39-6.39c1.78-1.63,3.81-2.93,6.03-3.87c2.31-0.98,4.76-1.53,7.28-1.64v9.04
			C79.4,43.92,79.4,43.93,79.4,43.94z M50.12,11.15c2.89-1.95,5.98-3.63,9.19-4.99c6.37-2.7,13.13-4.12,20.09-4.24v9.06
			c-11.71,0.24-22.32,4.96-30.19,12.51l-6.41-6.41C45.06,14.9,47.52,12.91,50.12,11.15z M30.52,34.94c1.36-3.2,3.03-6.29,4.99-9.19
			c1.76-2.6,3.75-5.06,5.93-7.32l6.41,6.41c-7.55,7.87-12.26,18.48-12.51,30.19h-9.06C26.4,48.07,27.83,41.32,30.52,34.94z
			 M35.51,86.23c-1.95-2.89-3.63-5.98-4.99-9.19c-2.7-6.37-4.12-13.13-4.24-20.09h9.06c0.09,4.54,0.86,8.91,2.2,13.02
			c0,0,0,0-0.01,0c-0.47,0-0.76-0.21-1.36-0.52c-0.55-0.28-0.98,0.1-1.22,0.08c-0.55-0.05-1.36-0.45-1.35-0.03
			c0,0.22,0.63,0.21,0.59,0.46c-0.07,0.39-1.53,0.25-1.61-0.32c-0.07-0.49-0.4-1.11-0.52-0.45c-0.13,0.78-0.74,0.54-1,0.77
			c-0.22,0.19-0.29,0.5-0.28,0.77c0.01,0.27-0.78,0.08-0.74,0.64c0.04,0.55,0.47,0.56,0.59,1.07c0.11,0.48,0.54,0.79,0.29,0.94
			c-0.24,0.14-0.21-0.17-0.42-0.06c-0.38,0.2,1.36,4.64,1.7,4.48c0.24-0.11-0.44-1.52-0.42-2.07c0.02-0.53,0.12-0.79,0.54-0.98
			c0.45-0.2,1.65,1.79,2.06,1.43c0.21-0.19-0.12-0.63,0.26-0.78c0.36-0.15,1.8,1.98,2.21,1.31c0.25-0.39,0.53,0.27,0.64,0.49
			c0.39,0.75,1.2,0.76,1.69,1.56c0.41,0.68,1.48,2.56,2.23,2.45c0.55-0.08,0.32-0.68,0.57-0.68c0.25,0,0.52,0.95,1.04,1.6
			c0.33,0.41,0.8,0.67,1.27,0.85c1.09,1.46,2.28,2.85,3.54,4.17l-6.41,6.41C39.26,91.29,37.27,88.83,35.51,86.23z M79.4,110.06
			c-6.96-0.12-13.72-1.54-20.09-4.24c-3.2-1.36-6.29-3.03-9.19-4.99c-2.6-1.76-5.06-3.75-7.32-5.93l6.41-6.41
			c7.87,7.55,18.48,12.26,30.19,12.51V110.06z M79.4,99.09c-5.48-0.12-10.8-1.25-15.82-3.38c-4.84-2.05-9.21-4.93-13.02-8.57
			l1.27-1.27c0.38,0.24,0.8,0.5,0.9,0.54c0.76,0.31,1.22,0.37,2.03,0.23c0.64-0.11,1.71-1.22,2.46-1.21
			c0.67,0.01,1.88,0.32,2.6-0.14c0.87-0.55-0.5-1.94-0.89-2.62c-0.06-0.1-0.17-0.23-0.3-0.48c5.67,4.7,12.88,7.6,20.77,7.82V99.09z
			 M79.4,88.11c-4-0.12-7.88-0.96-11.55-2.51c-3.53-1.49-6.73-3.59-9.52-6.22l6.41-6.41c2.82,2.6,6.29,4.5,10.14,5.44
			c-0.05,0.04-0.1,0.08-0.16,0.1c-0.96,0.37-1.86,1.46-1.59,2.18c0.33,0.9-0.9,1.2-0.9,2.09c0,0.8,1.17,1.44,1.39,2.3
			c0.12,0.48,1.19,1.09,2.09,1.72c0.43,0.3,2.84,0.3,3.42,0.28c0.1,0,0.19,0,0.28,0V88.11z M81.01,75.58
			c-0.44,0.07-1.03,0.5-1.61,0.49c-0.21,0-0.41-0.06-0.6-0.2c-0.46-0.35-1,0.56-1.2,0.72c-0.13,0.11-0.26,0.21-0.44,0.32
			c-1.73-0.26-3.41-0.74-5.03-1.42c-2.23-0.94-4.25-2.24-6.03-3.87l6.39-6.39c0.01-0.01,0.02-0.02,0.03-0.03
			c1.79,1.53,4.04,2.55,6.51,2.82c0.06,0.02,0.13,0.02,0.12,0.08c-0.03,0.18,0.08,0.31,0.17,0.69c0,0,0.14,0.38,0.12,0.53
			c-0.04,0.27-0.43,0.86-0.31,1.11c0.03,0.06,0.13,0.09,0.28,0.09c0.44,0.01,1.24-0.23,1.3-0.48c0.08-0.33-0.38-0.69-0.61-1.14
			c-0.1-0.19-0.11-0.48-0.18-0.75c0-0.03,0.15-0.02,0.16-0.06c0.1,0,0.2,0.01,0.29,0.01c0.32,0,0.64-0.01,0.96-0.04
			c0.19-0.01,0.38-0.04,0.56-0.06c0.11-0.09,0.14-0.26,0.19-0.38c0.07-0.16,0.24-0.54,0.37-0.56c0.11-0.02,0.2,0.19,0.27,0.34
			c0.07,0.15,0.21,0.43,0.21,0.43c0.12,0.26,0.27,0.46,0.51,0.37c0.16-0.06,0.27-0.3,0.34-0.59c0.1-0.45,0.09-1.02-0.04-1.25
			c-0.15-0.28-0.21-0.5-0.22-0.68c-0.02-0.29,0.09-0.48,0.14-0.64c0.05-0.17,0.11-1.06,0.46-0.86c0.25,0.15-0.04,0.89-0.05,1.1
			c0,0.06,0,0.13,0.01,0.19c0.05,0.39,0.3,0.78,0.75,0.58c0.23-0.1,0.62-0.65,0.91-0.46c0.29,0.19-0.77,0.47-0.82,0.72
			c-0.07,0.33,0.39,0.48,0.24,0.63c-0.15,0.15-0.27-0.05-0.39,0.1c-0.03,0.04-0.03,0.11-0.01,0.21c0.06,0.32,0.29,0.88-0.02,0.96
			c-0.29,0.08-1.3,0.47-1.59,0.59c-0.28,0.12-0.54-0.16-0.39-0.32c0.09-0.1,0-0.42-0.13-0.61c0,0-0.1-0.13-0.17-0.14
			s-0.11-0.01-0.2,0.05c-0.08,0.06-0.11,0.17-0.11,0.17c-0.03,0.07-0.04,0.15-0.06,0.23c-0.04,0.27,0.35,0.67,0.29,0.88
			c-0.04,0.17-0.51,0.22-0.75,0.4c-0.08,0.07-0.2,0.22-0.34,0.4c-0.23,0.3-0.51,0.66-0.78,0.85c-0.32,0.21-0.86,0.31-1.13,0.42
			c-0.1,0.04-0.17,0.08-0.17,0.12c0,0.06,0.07,0.13,0.17,0.21c0.13,0.1,0.31,0.21,0.37,0.29c0.36,0.41,0.52,1.05-0.09,1.32
			c-0.09,0.04-0.19,0.06-0.28,0.06c-0.5-0.01-1.04-0.49-1.39-0.28c-0.47,0.29-0.51,0.89-0.59,1.71c-0.07,0.68,1.11,1.01,1.98,0.85
			c0.17-0.03,0.32-0.08,0.45-0.14c0.55-0.27,0.52-1.25,1.06-1.49c0.18-0.07,0.29-0.22,0.4-0.36c0.17-0.22,0.31-0.43,0.6-0.36
			c0.64,0.15,0.44-0.42,1.04-0.43c0.6-0.01,0.63,0.4,1.39,0.6c1.18,0.31,1.13,1.21,1.37,0.7c0.28-0.62,0.33-0.74-0.66-0.96
			c-1.17-0.27-1.25-1.31-0.57-0.96c0.91,0.47,1.66,0.41,1.84,0.92c0.17,0.5,1.09,0.36,1.18,0.8c0.13,0.66,0.7-0.04,0.34-0.41
			c-0.45-0.47-0.37-0.59,0-0.91c0.31-0.27,0.46,0.14,0.87-0.41c0.41-0.54-0.21-0.46-0.25-0.76c-0.04-0.3,0.08-1.94,0.53-1.64
			c0.58,0.38,1.1-0.15,0.91-0.34c-0.38-0.37,0.11-1.04,0.27-0.97c0.17,0.07-0.05,0.56,0.17,0.76c0.31,0.28,1.65-0.46,1.78,0.22
			c0.1,0.53-1.06,1.1-1.28,1.1c-0.56,0-1.02,0.56-1.52,1.11c-0.33,0.36-0.95,0.77-0.56,1.3c0.43,0.58,0.87,0.44,1.48,0.14
			c0.68-0.34,1.06-0.79,1.37-0.93c0.49-0.21,0.8,0.72,0.84,1.35c0.01,0.21,0,0.39-0.05,0.48c-0.19,0.37-0.86,0.46-1.19,0.71
			c-0.73,0.55-1.42,0.64-2.21,0.77c-0.19,0.03-0.39,0.07-0.6,0.11c-0.35,0.07-0.49,0.19-0.59,0.38c-0.06,0.12-0.1,0.27-0.16,0.46
			c-0.11,0.37-1.14,0.34-2.07,0.25c-0.59-0.06-1.14-0.14-1.38-0.16c-0.53-0.05,0.4-1.33-0.5-1.24c-0.73,0.07-1.58,0.29-2.4,0.44
			C81.21,75.55,81.11,75.56,81.01,75.58z M86.59,89.46c0.01,0.01,0.02,0.01,0.03,0.02c0.63,0.45,1.33,0.65,1.92,1.54
			c0.49,0.73,0.65,1,0.24,1.69c-0.77,1.27-0.39,2.15,1.04,2.64c0.83,0.28,1.13,1.21,1.8,1.77c0.07,0.12,0.08,0.28,0.28,0.37
			c0.02,0.01,0.04,0.02,0.07,0.03c-3.45,0.97-7.02,1.49-10.66,1.57v-9.06C83.11,89.97,84.87,89.78,86.59,89.46z M81.31,88.11v-1.49
			c0.07-0.03,0.15-0.05,0.24-0.06c1.85-0.21,1.47,0.82,2.86,0.45c0.4-0.11,0.97-0.09,1.25,0.22c0.2,0.13,0.32,0.25,0.3,0.41
			C84.44,87.9,82.88,88.06,81.31,88.11z M110.59,100.84c-2.89,1.95-5.98,3.63-9.19,4.99c-6.37,2.7-13.13,4.12-20.09,4.24V101
			c4.69-0.1,9.21-0.91,13.45-2.34c0.12,0.09,0.2,0.21,0.35,0.21c0.56,0,1.1-0.29,1.6-0.52c1.18-0.54,2.75-1.24,4.03-2.21
			c0,0,0,0,0,0c3.96-2.02,7.59-4.6,10.77-7.65l6.41,6.41C115.65,97.09,113.19,99.08,110.59,100.84z M130.19,77.04
			c-1.36,3.2-3.03,6.29-4.99,9.19c-1.76,2.6-3.75,5.06-5.93,7.32l-6.41-6.41c7.55-7.87,12.26-18.48,12.51-30.19h9.06
			C134.31,63.92,132.88,70.67,130.19,77.04z M125.36,55.04c-0.14-6.58-1.69-12.82-4.36-18.41c0-0.01,0.01-0.01,0.01-0.02
			c0.05-0.04,0.1-0.09,0.15-0.13c0.67-0.62-2.79-4.93-3.33-5.48c-0.04-0.04-0.07-0.07-0.11-0.11c-1.45-2.15-3.08-4.17-4.87-6.04
			l6.41-6.41c2.18,2.26,4.18,4.72,5.93,7.32c1.95,2.89,3.63,5.98,4.99,9.19c2.7,6.37,4.12,13.13,4.24,20.09H125.36z"/>
        </g>
    </g>
</svg>
